<svg xmlns="http://www.w3.org/2000/svg" viewBox="0 0 322.71 52.36"><defs><style>.cls-1{fill:#fff;}</style></defs><g id="Layer_2" data-name="Layer 2"><g id="Layer_1-2" data-name="Layer 1"><polygon class="cls-1" points="0 28.8 11.08 39.89 23.57 39.89 12.48 28.8 23.57 17.73 11.08 17.73 0 28.8"/><polygon class="cls-1" points="71.5 17.73 59.02 17.73 70.1 28.8 59.02 39.89 71.5 39.89 82.58 28.8 71.5 17.73"/><polygon class="cls-1" points="23.57 17.73 40.89 35.04 23.57 52.36 23.57 52.36 59.02 52.36 59.02 52.36 41.7 35.04 59.02 17.73 41.29 0 23.57 17.73"/><polygon class="cls-1" points="106.74 11.22 102.64 11.22 102.64 41.15 107.56 41.15 107.56 28.23 120.63 28.23 119.15 23.97 107.56 23.97 107.56 15.48 121.97 15.48 120.49 11.22 107.56 11.22 106.74 11.22"/><rect class="cls-1" x="125.02" y="11.22" width="4.84" height="29.92"/><path class="cls-1" d="M143.67,36.76h-.87l-5.88-17.71H132l7.5,21.61h3.05l-.42,1.51a6.09,6.09,0,0,1-.95,2,3,3,0,0,1-1.47,1.07,6.94,6.94,0,0,1-2.18.31h-3.64l1.46,4.22h1.82a12.38,12.38,0,0,0,4.28-.66,6.71,6.71,0,0,0,2.95-2.09,10.4,10.4,0,0,0,1.83-3.73l7-24.27H148.6Z"/><polygon class="cls-1" points="155.29 19.05 154.23 22.74 158.03 22.74 158.03 41.15 162.83 41.15 162.83 22.74 162.83 19.05 158.03 19.05 155.29 19.05"/><path class="cls-1" d="M231.89,35.47a5.23,5.23,0,0,1-1.95,1.6,6.56,6.56,0,0,1-2.89.59,6.2,6.2,0,0,1-3.59-1A5.81,5.81,0,0,1,221.37,34a10.44,10.44,0,0,1-.67-3.85,10.3,10.3,0,0,1,.69-3.91,6.07,6.07,0,0,1,2.09-2.69,6,6,0,0,1,3.53-1,5.56,5.56,0,0,1,3.87,1.27,4.87,4.87,0,0,1,1.66,3.11h4.64a8.78,8.78,0,0,0-1.52-4.53,9,9,0,0,0-3.59-3A11.6,11.6,0,0,0,227,18.31a11.45,11.45,0,0,0-4.86,1,10,10,0,0,0-3.46,2.6,11.17,11.17,0,0,0-2.09,3.67,12.68,12.68,0,0,0-.7,4.2v.74a13,13,0,0,0,.68,4.12,11.36,11.36,0,0,0,2,3.69,9.48,9.48,0,0,0,3.48,2.62,11.86,11.86,0,0,0,4.94,1,12,12,0,0,0,5.17-1.09,9.4,9.4,0,0,0,3.69-3,8.48,8.48,0,0,0,1.51-4.62h-4.67A4.55,4.55,0,0,1,231.89,35.47Z"/><path class="cls-1" d="M259.87,21.82a11.2,11.2,0,0,0-3.75-2.56,12.55,12.55,0,0,0-5-1,12.76,12.76,0,0,0-5,1A11.08,11.08,0,0,0,240,25.49a11.54,11.54,0,0,0-.8,4.22v.82a11.59,11.59,0,0,0,.78,4.2,10.92,10.92,0,0,0,2.3,3.63A11.1,11.1,0,0,0,246,40.92a14,14,0,0,0,10.25,0A11.21,11.21,0,0,0,260,38.36a10.9,10.9,0,0,0,2.29-3.63,11.59,11.59,0,0,0,.78-4.2v-.82a11.54,11.54,0,0,0-.8-4.22A10.94,10.94,0,0,0,259.87,21.82ZM257.39,34A6.56,6.56,0,0,1,255,36.7a7.93,7.93,0,0,1-7.71,0A6.51,6.51,0,0,1,244.81,34a9.24,9.24,0,0,1,0-7.74,6.63,6.63,0,0,1,2.46-2.73,7.76,7.76,0,0,1,7.62,0,6.63,6.63,0,0,1,2.46,2.73,8.46,8.46,0,0,1,.86,3.89A8.64,8.64,0,0,1,257.39,34Z"/><path class="cls-1" d="M283.4,22.35a8,8,0,0,0-3-2.91,9.6,9.6,0,0,0-4.57-1.08,10.34,10.34,0,0,0-4.33.88,9.78,9.78,0,0,0-3.34,2.44A10.87,10.87,0,0,0,266,25.3a12.76,12.76,0,0,0-.76,4.45v.78A12.5,12.5,0,0,0,266,35a11,11,0,0,0,2.23,3.61A10.38,10.38,0,0,0,276,41.89a9.84,9.84,0,0,0,4.59-1.09A8.35,8.35,0,0,0,284,37.42a8.59,8.59,0,0,0,.39-.81v4.54h3.82V11.22h-4.8Zm.16,8.47a7.17,7.17,0,0,1-.92,3.71,6.17,6.17,0,0,1-2.42,2.39,7.2,7.2,0,0,1-6.86-.1,6.31,6.31,0,0,1-2.44-2.64,8.77,8.77,0,0,1-.88-4.06,8.81,8.81,0,0,1,.86-4,6.44,6.44,0,0,1,2.4-2.68,6.53,6.53,0,0,1,3.54-1,7.15,7.15,0,0,1,3.32.78,6.28,6.28,0,0,1,2.46,2.26,6.45,6.45,0,0,1,.94,3.56Z"/><path class="cls-1" d="M313.37,29.26a12.25,12.25,0,0,0-1.19-5.35,9.84,9.84,0,0,0-3.57-4,10.59,10.59,0,0,0-5.94-1.56,11.36,11.36,0,0,0-4.82,1,9.67,9.67,0,0,0-3.42,2.58,11.18,11.18,0,0,0-2,3.65,13.19,13.19,0,0,0-.67,4.2v.78a13.08,13.08,0,0,0,.67,4.16,11.18,11.18,0,0,0,2,3.65,9.66,9.66,0,0,0,3.49,2.6,11.74,11.74,0,0,0,5,1,11.9,11.9,0,0,0,4.75-.91A8.78,8.78,0,0,0,313,34.47h-4.47a4.05,4.05,0,0,1-1.8,2.35,7.54,7.54,0,0,1-7.54,0A5.87,5.87,0,0,1,297,34.08a9.78,9.78,0,0,1-.65-2.89h17.05Zm-14.27-5.9a7,7,0,0,1,7-.11,5.47,5.47,0,0,1,2.05,2.5,8.65,8.65,0,0,1,.58,2.2H296.45a9,9,0,0,1,.52-1.89A5.87,5.87,0,0,1,299.1,23.36Z"/><rect class="cls-1" x="156.7" y="9.52" width="5.67" height="5.67" transform="translate(55.46 -109.19) rotate(45)"/><path class="cls-1" d="M212.26,18.31H201.47a11.16,11.16,0,0,0-4.33.95,10,10,0,0,0-3.46,2.6,11.27,11.27,0,0,0-2.09,3.67,12.78,12.78,0,0,0-.7,4.21v.73a12.94,12.94,0,0,0,.68,4.12A11.13,11.13,0,0,0,193,37.41l0,0,.22.32a8.57,8.57,0,0,0,1.16,1.32l.2.18.19.17.44.35.18.14,0,0a9.74,9.74,0,0,0,1.7,1,11.41,11.41,0,0,0,4.56,1h.76a11.33,11.33,0,0,0,4.56-1,9.41,9.41,0,0,0,1.78-1l.15-.1.06-.05v2.16a3.69,3.69,0,0,1-3.69,3.69h-9.59l1.57,4.22h8a7.92,7.92,0,0,0,7.91-7.92V29.54h0a12.93,12.93,0,0,0-.69-4,11.22,11.22,0,0,0-1.61-3h2.82ZM208,33.15a6,6,0,0,1-.27.82,7.89,7.89,0,0,1-.33.72,2.53,2.53,0,0,1-.13.22l-.13.21a6.94,6.94,0,0,1-.51.67l-.14.15-.11.11a1.14,1.14,0,0,1-.11.11l-.23.21a6,6,0,0,1-1.1.69l-.25.12-.15,0-.29.11-.2.06-.12,0h0l-.06,0-.2,0-.37.06-.37,0h0l-.36,0h-.85l-.37,0h0l-.38,0-.37-.06-.17,0h-.07l-.07,0h0l-.1,0h0l-.27-.09-.2-.07-.1,0a1.39,1.39,0,0,1-.28-.12,5.66,5.66,0,0,1-1.33-.9l-.21-.22-.15-.16a2.09,2.09,0,0,1-.14-.17l-.07-.09-.16-.21-.16-.23c-.05-.08-.1-.16-.14-.24l-.14-.24-.09-.2a3.3,3.3,0,0,1-.19-.43,7.92,7.92,0,0,1-.28-.82,11.77,11.77,0,0,1,0-6.23,7.63,7.63,0,0,1,.26-.72,6,6,0,0,1,2.09-2.69,5.83,5.83,0,0,1,3.3-1h.8a5.7,5.7,0,0,1,3,1,6,6,0,0,1,2.09,2.69,5.55,5.55,0,0,1,.25.72,10.6,10.6,0,0,1,.45,3.19A10.85,10.85,0,0,1,208,33.15Z"/><path class="cls-1" d="M167.47,28.54V41.15h4.79V28.54a5.44,5.44,0,0,1,5.44-5.43h0a5.44,5.44,0,0,1,5.44,5.43V41.15h4.79V28.54A10.23,10.23,0,0,0,177.7,18.31h0A10.23,10.23,0,0,0,167.47,28.54Z"/><path class="cls-1" d="M314.75,18.34V14.49h-1.38v-.77h3.68v.77h-1.39v3.85Zm2.94,0V13.72h1.17l1.3,3.09h.08l1.3-3.09h1.17v4.62h-.88V14.86l-1.12,2.68h-1l-1.14-2.68v3.48Z"/></g></g></svg>